<svg xmlns="http://www.w3.org/2000/svg" viewBox="0 0 100 100" fill="none">
  <rect width="100" height="100" rx="22" fill="#0d1117"/>
  <path d="M50 20C33.4 20 20 33.4 20 50c0 13.3 8.6 24.6 20.6 28.6 1.5.3 2-.7 2-1.4v-5c-8.4 1.8-10.1-4.1-10.1-4.1-1.4-3.5-3.4-4.4-3.4-4.4-2.7-1.9.2-1.8.2-1.8 3 .2 4.6 3.1 4.6 3.1 2.7 4.6 7 3.3 8.7 2.5.3-1.9 1-3.3 1.9-4.1-6.7-.7-13.7-3.3-13.7-14.9 0-3.3 1.2-6 3.1-8.1-.3-.8-1.3-3.8.3-8 0 0 2.5-.8 8.3 3.1 2.4-.7 5-.9 7.5-.9 2.5 0 5.1.3 7.5.9 5.8-3.9 8.3-3.1 8.3-3.1 1.6 4.2.6 7.2.3 8 1.9 2.1 3.1 4.8 3.1 8.1 0 11.6-7.1 14.1-13.8 14.9 1.1.9 2 2.8 2 5.6v8.3c0 .8.5 1.7 2.1 1.4C71.4 74.6 80 63.3 80 50 80 33.4 66.6 20 50 20z" fill="#f0f6fc"/>
</svg>
